<svg xmlns="http://www.w3.org/2000/svg" width="74.035" height="50.162" viewBox="0 0 74.035 50.162"><defs><style>.a{fill:#ed3d75;}</style></defs><g transform="translate(0 32.544)"><path class="a" d="M1048.973-37.061h-36.8a8.819,8.819,0,0,1-8.809-8.81,8.819,8.819,0,0,1,8.809-8.809h36.8a8.819,8.819,0,0,1,8.809,8.808A8.82,8.82,0,0,1,1048.973-37.061Zm-36.8-15.77a6.969,6.969,0,0,0-6.961,6.96,6.97,6.97,0,0,0,6.961,6.963h36.8a6.969,6.969,0,0,0,6.962-6.962,6.969,6.969,0,0,0-6.962-6.961Z" transform="translate(-1003.364 54.679)"/></g><g transform="translate(6.121 0)"><path class="a" d="M1014.794-55.515h-3.88a.924.924,0,0,1-.924-.924V-88.983a.924.924,0,0,1,.924-.924h3.88a.924.924,0,0,1,.924.924v32.544A.924.924,0,0,1,1014.794-55.515Zm-2.956-1.848h2.032v-30.7h-2.032Z" transform="translate(-1009.99 89.907)"/></g><g transform="translate(37.665 40.427)"><path class="a" d="M1049.853-44.3h-4.794a.923.923,0,0,1-.924-.924.923.923,0,0,1,.924-.924h4.794a.923.923,0,0,1,.924.924A.923.923,0,0,1,1049.853-44.3Z" transform="translate(-1044.135 46.146)"/></g><g transform="translate(52.57 12.926)"><path class="a" d="M1061.193-66.141a.923.923,0,0,1-.924-.924v-7.926a.924.924,0,0,1,.924-.924.924.924,0,0,1,.924.924v7.926A.924.924,0,0,1,1061.193-66.141Z" transform="translate(-1060.269 75.915)"/></g><g transform="translate(64.262 32.544)"><path class="a" d="M1081.774-52.831h-7.926a.923.923,0,0,1-.924-.924.923.923,0,0,1,.924-.924h7.926a.924.924,0,0,1,.924.924A.924.924,0,0,1,1081.774-52.831Z" transform="translate(-1072.925 54.679)"/></g><g transform="translate(60.837 18.672)"><path class="a" d="M1070.142-62.243a.921.921,0,0,1-.653-.271.923.923,0,0,1,0-1.306l5.6-5.6a.923.923,0,0,1,1.307,0,.923.923,0,0,1,0,1.306l-5.6,5.6A.924.924,0,0,1,1070.142-62.243Z" transform="translate(-1069.218 69.695)"/></g><g transform="translate(17.082 32.545)"><path class="a" d="M1024.448-37.061a.924.924,0,0,1-.924-.924v-3.007l-1.4-1.4a.927.927,0,0,1-.271-.653V-53.754a.924.924,0,0,1,.924-.924.923.923,0,0,1,.924.924v10.327l1.4,1.4a.921.921,0,0,1,.271.653v3.389A.924.924,0,0,1,1024.448-37.061Z" transform="translate(-1021.855 54.678)"/></g><g transform="translate(6.88 26.187)"><path class="a" d="M1014.86-59.712h-3.125a.923.923,0,0,1-.924-.924.924.924,0,0,1,.924-.924h3.125a.924.924,0,0,1,.924.924A.923.923,0,0,1,1014.86-59.712Z" transform="translate(-1010.811 61.56)"/></g></svg>