<svg xmlns="http://www.w3.org/2000/svg" width="44.771" height="53.66" viewBox="0 0 44.771 53.66"><defs><style>.a{fill:#ec3e75;}</style></defs><g transform="translate(0 0)"><g transform="translate(2.902 2.399)"><path class="a" d="M168.74-214.159a1.069,1.069,0,0,1-1.069-1.069v-6.02a17.364,17.364,0,0,0-17.345-17.345,17.365,17.365,0,0,0-17.345,17.345v6.02a1.069,1.069,0,0,1-1.069,1.069,1.069,1.069,0,0,1-1.069-1.069v-6.02a19.505,19.505,0,0,1,19.483-19.483,19.5,19.5,0,0,1,19.483,19.483v6.02A1.069,1.069,0,0,1,168.74-214.159Z" transform="translate(-130.843 240.731)"/></g><g transform="translate(0 23.484)"><path class="a" d="M171.828-212.421a1.052,1.052,0,0,1-.592-.181,37.123,37.123,0,0,0-20.675-6.265h-.093A37.128,37.128,0,0,0,129.79-212.6a1.069,1.069,0,0,1-1.483-.295,1.069,1.069,0,0,1,.3-1.483A39.256,39.256,0,0,1,150.465-221c.033,0,.065,0,.1,0a39.242,39.242,0,0,1,21.858,6.625,1.069,1.069,0,0,1,.3,1.483A1.068,1.068,0,0,1,171.828-212.421Z" transform="translate(-128.128 221.005)"/></g><g transform="translate(9.394 47.139)"><path class="a" d="M149.933-192.354a.483.483,0,0,0-.056,0,19.41,19.41,0,0,1-12.586-4.639,1.069,1.069,0,0,1-.12-1.506,1.068,1.068,0,0,1,1.507-.12,17.281,17.281,0,0,0,11.2,4.127h.049a17.28,17.28,0,0,0,11.2-4.127,1.068,1.068,0,0,1,1.507.12,1.068,1.068,0,0,1-.12,1.506A19.418,19.418,0,0,1,149.933-192.354Z" transform="translate(-136.916 198.875)"/></g><g transform="translate(25.29 33.314)"><path class="a" d="M152.856-205.08a1.069,1.069,0,0,1-1.069-1.069v-4.591a1.069,1.069,0,0,1,1.069-1.069,1.069,1.069,0,0,1,1.069,1.069v4.591A1.069,1.069,0,0,1,152.856-205.08Z" transform="translate(-151.787 211.809)"/></g><g transform="translate(17.342 33.314)"><path class="a" d="M145.421-205.08a1.069,1.069,0,0,1-1.069-1.069v-4.591a1.069,1.069,0,0,1,1.069-1.069,1.069,1.069,0,0,1,1.069,1.069v4.591A1.069,1.069,0,0,1,145.421-205.08Z" transform="translate(-144.352 211.809)"/></g><g transform="translate(19.015 0)"><path class="a" d="M151.582-238.261a1.069,1.069,0,0,1-1.069-1.069v-1.507h-2.458v1.4a1.069,1.069,0,0,1-1.069,1.069,1.069,1.069,0,0,1-1.069-1.069v-2.471a1.069,1.069,0,0,1,1.069-1.069h4.6a1.069,1.069,0,0,1,1.069,1.069v2.576A1.069,1.069,0,0,1,151.582-238.261Z" transform="translate(-145.917 242.975)"/></g></g></svg>