<svg xmlns="http://www.w3.org/2000/svg" width="52.616" height="52.616" viewBox="0 0 52.616 52.616"><defs><style>.a{fill:#ed3d75;}</style></defs><g transform="translate(0)"><path class="a" d="M51.768,23.762H49.222v-.849a.8.8,0,0,0-.849-.849h-.849v-.849a21.216,21.216,0,0,0-42.433,0v.849H4.243a.8.8,0,0,0-.849.849v.849H.849A.8.8,0,0,0,0,24.611V31.4a.8.8,0,0,0,.849.849H3.395V33.1a.8.8,0,0,0,.849.849H8.656a2.472,2.472,0,0,0,2.376,1.7h4.328a14.386,14.386,0,0,0,25.375-9.335V19.519a14.427,14.427,0,0,0-28.854,0v6.789a14.292,14.292,0,0,0,2.206,7.638H11.032a.8.8,0,0,1-.849-.849V22.914a.8.8,0,0,0-.849-.849H6.789v-.849a19.519,19.519,0,0,1,39.038,0v.849H43.281a.8.8,0,0,0-.849.849V33.1a.8.8,0,0,0,.849.849h5.092a.8.8,0,0,0,.849-.849v-.849h2.546a.8.8,0,0,0,.849-.849V24.611A.8.8,0,0,0,51.768,23.762ZM3.395,30.551H1.7V25.459h1.7ZM33.946,9.335a12.781,12.781,0,0,1,5.092,10.184V21.98a5.938,5.938,0,0,1-5.092-5.856ZM13.578,19.519a12.713,12.713,0,0,1,12.73-12.73,13.329,13.329,0,0,1,5.941,1.443A14.467,14.467,0,0,1,17.822,22.065H13.578Zm0,6.789V23.762h4.243a16.091,16.091,0,0,0,14.427-9v1.358a7.555,7.555,0,0,0,6.789,7.553v2.631a12.731,12.731,0,0,1-21.386,9.335h4.5a2.472,2.472,0,0,0,2.376,1.7h3.395a2.546,2.546,0,0,0,0-5.092H24.526a2.472,2.472,0,0,0-2.376,1.7H16.124A13.1,13.1,0,0,1,13.578,26.308Zm10.184,8.487a.8.8,0,0,1,.849-.849h3.395a.849.849,0,1,1,0,1.7H24.611A.8.8,0,0,1,23.762,34.795ZM8.487,23.762v8.486H5.092V23.762Zm39.038,8.486H44.13V23.762h3.395Zm3.395-1.7h-1.7V25.459h1.7Z"/></g><g transform="translate(4.243 42.433)"><path class="a" d="M74.795,400H49.335A9.308,9.308,0,0,0,40,409.335a.8.8,0,0,0,.849.849H83.281a.8.8,0,0,0,.849-.849A9.308,9.308,0,0,0,74.795,400Zm-33.013,8.487a7.616,7.616,0,0,1,7.553-6.789h25.46a7.555,7.555,0,0,1,7.553,6.789Z" transform="translate(-40 -400)"/></g></svg>