<svg xmlns="http://www.w3.org/2000/svg" width="53.144" height="53.142" viewBox="0 0 53.144 53.142"><defs><style>.a{fill:#ed3d75;}</style></defs><path class="a" d="M62.434,28.851a6.605,6.605,0,1,0-6.606,6.606A6.605,6.605,0,0,0,62.434,28.851Zm-11.646,0a5.041,5.041,0,1,1,5.041,5.042,5.041,5.041,0,0,1-5.041-5.042Z" transform="translate(-29.256 -14.34)"/><path class="a" d="M57.648,56.64,51.271,39.922a.783.783,0,0,0-.731-.5H38.471c.074-.12.147-.237.221-.358,4.644-7.689,6.981-14.414,6.947-19.988a14.512,14.512,0,1,0-29.023,0c-.034,5.576,2.3,12.3,6.947,19.99.074.122.147.239.221.358H11.715a.783.783,0,0,0-.731.5L4.608,56.64A.781.781,0,0,0,5.339,57.7H56.917a.781.781,0,0,0,.731-1.061ZM18.181,19.07a12.947,12.947,0,0,1,25.894,0c.067,11.114-10.321,24.819-12.947,28.105C28.5,43.893,18.113,30.191,18.181,19.07ZM30.532,48.921a.782.782,0,0,0,1.192,0,83.018,83.018,0,0,0,5.766-7.938H50l1,2.626L26.555,52.3,17.841,40.981h6.924a83.018,83.018,0,0,0,5.767,7.94Zm-4,5.051h0l14.585-5.185,5.657,7.35H20.445ZM12.254,40.981h3.612L25,52.855l-9.228,3.282h-9.3Zm36.5,15.156-6.083-7.9,8.9-3.163,4.221,11.068Z" transform="translate(-4.556 -4.559)"/></svg>