<svg xmlns="http://www.w3.org/2000/svg" width="63.567" height="44.044" viewBox="0 0 63.567 44.044"><defs><style>.a{fill:#ec3e75;}</style></defs><g transform="translate(0 0)"><g transform="translate(0.001)"><path class="a" d="M166.172-262.5h-42.3a3.95,3.95,0,0,1-3.938-3.942v-26.346a3.951,3.951,0,0,1,3.936-3.945H170.71a3.949,3.949,0,0,1,3.946,3.945v14.47a1.091,1.091,0,0,1-1.091,1.091,1.09,1.09,0,0,1-1.091-1.091v-14.47a1.765,1.765,0,0,0-1.764-1.763H123.873a1.765,1.765,0,0,0-1.756,1.763v26.345a1.764,1.764,0,0,0,1.758,1.762h42.3a1.091,1.091,0,0,1,1.091,1.091A1.091,1.091,0,0,1,166.172-262.5Z" transform="translate(-119.935 296.73)"/></g><g transform="translate(45.151 17.324)"><path class="a" d="M172.905-254.129h-4.746a6.842,6.842,0,0,1-6.834-6.834v-13.052a6.842,6.842,0,0,1,6.834-6.834h4.746a6.843,6.843,0,0,1,6.835,6.834v13.052A6.843,6.843,0,0,1,172.905-254.129Zm-4.746-24.539a4.657,4.657,0,0,0-4.652,4.652v13.052a4.657,4.657,0,0,0,4.652,4.652h4.746a4.658,4.658,0,0,0,4.654-4.652v-13.052a4.658,4.658,0,0,0-4.654-4.652Z" transform="translate(-161.325 280.849)"/></g><g transform="translate(14.087 32.051)"><path class="a" d="M158.3-255.355H133.939a1.091,1.091,0,0,1-1.091-1.091v-2.3a1.089,1.089,0,0,1,.755-1.037,9.2,9.2,0,0,0,6.115-6.712,1.092,1.092,0,0,1,1.3-.826,1.09,1.09,0,0,1,.826,1.3,11.393,11.393,0,0,1-6.817,8.035v.446h22.182v-.446a11.4,11.4,0,0,1-6.812-8.035,1.09,1.09,0,0,1,.826-1.3,1.088,1.088,0,0,1,1.3.826,9.213,9.213,0,0,0,6.112,6.712,1.091,1.091,0,0,1,.754,1.037v2.3A1.091,1.091,0,0,1,158.3-255.355Z" transform="translate(-132.848 267.348)"/></g><g transform="translate(45.151 36.07)"><path class="a" d="M178.65-261.482H162.416a1.09,1.09,0,0,1-1.091-1.091,1.091,1.091,0,0,1,1.091-1.091H178.65a1.091,1.091,0,0,1,1.091,1.091A1.091,1.091,0,0,1,178.65-261.482Z" transform="translate(-161.325 263.664)"/></g><g transform="translate(52.607 39.08)"><path class="a" d="M170.572-258.723h-1.321a1.091,1.091,0,0,1-1.091-1.091,1.091,1.091,0,0,1,1.091-1.091h1.321a1.091,1.091,0,0,1,1.091,1.091A1.091,1.091,0,0,1,170.572-258.723Z" transform="translate(-168.16 260.905)"/></g><g transform="translate(0 27.307)"><path class="a" d="M166.176-269.515H121.025a1.091,1.091,0,0,1-1.091-1.091,1.091,1.091,0,0,1,1.091-1.091h45.151a1.091,1.091,0,0,1,1.091,1.091A1.091,1.091,0,0,1,166.176-269.515Z" transform="translate(-119.934 271.697)"/></g></g></svg>