<svg xmlns="http://www.w3.org/2000/svg" width="24.623" height="18.756" viewBox="0 0 24.623 18.756"><defs><style>.a{fill:#ed3d75;}</style></defs><g transform="translate(0 0)"><path class="a" d="M22.459,61H2.164A2.168,2.168,0,0,0,0,63.164V77.592a2.168,2.168,0,0,0,2.164,2.164H22.459a2.168,2.168,0,0,0,2.164-2.164V63.164A2.168,2.168,0,0,0,22.459,61Zm-.3,1.443-9.8,9.8-9.887-9.8ZM1.443,77.293V63.456l6.948,6.889Zm1.02,1.02L9.415,71.36l2.436,2.415a.721.721,0,0,0,1.018,0L15.245,71.4l6.915,6.915Zm20.717-1.02-6.915-6.915,6.915-6.915Z" transform="translate(0 -61)"/></g></svg>