<svg xmlns="http://www.w3.org/2000/svg" width="22.418" height="22.526" viewBox="0 0 22.418 22.526"><defs><style>.a{fill:#ed3d75;fill-rule:evenodd;}</style></defs><path class="a" d="M19.4,3.274A11.165,11.165,0,0,0,1.833,16.742L.25,22.526l5.917-1.552A11.15,11.15,0,0,0,11.5,22.332h0A11.167,11.167,0,0,0,19.4,3.274Zm-7.9,17.173h0A9.266,9.266,0,0,1,6.78,19.154l-.339-.2-3.511.921.937-3.424L3.646,16.1a9.277,9.277,0,1,1,7.859,4.348ZM16.594,13.5c-.279-.14-1.65-.814-1.906-.907s-.442-.139-.627.14-.72.907-.883,1.093-.325.21-.6.07a7.618,7.618,0,0,1-2.243-1.384,8.413,8.413,0,0,1-1.552-1.932c-.163-.279,0-.416.122-.569a7.889,7.889,0,0,0,.7-.954.513.513,0,0,0-.023-.489c-.07-.14-.627-1.512-.86-2.071s-.456-.47-.628-.479-.349-.01-.535-.01a1.024,1.024,0,0,0-.744.349,3.128,3.128,0,0,0-.976,2.327,5.425,5.425,0,0,0,1.139,2.885,12.432,12.432,0,0,0,4.764,4.211,15.963,15.963,0,0,0,1.59.588,3.823,3.823,0,0,0,1.757.111,2.873,2.873,0,0,0,1.883-1.326,2.33,2.33,0,0,0,.163-1.326c-.07-.116-.256-.186-.534-.326Zm0,0" transform="translate(-0.25)"/></svg>